<?xml version="1.0" encoding="utf-8"?>
<svg xmlns="http://www.w3.org/2000/svg" xmlns:xlink="http://www.w3.org/1999/xlink" style="margin: auto; background: none; display: block; shape-rendering: auto;" width="84px" height="84px" viewBox="0 0 100 100" preserveAspectRatio="xMidYMid">
<g transform="rotate(0 50 50)">
  <rect x="47.5" y="25" rx="0" ry="0" width="5" height="8" fill="#263133">
    <animate attributeName="opacity" values="1;0" keyTimes="0;1" dur="0.8695652173913042s" begin="-0.7729468599033815s" repeatCount="indefinite"></animate>
  </rect>
</g><g transform="rotate(40 50 50)">
  <rect x="47.5" y="25" rx="0" ry="0" width="5" height="8" fill="#263133">
    <animate attributeName="opacity" values="1;0" keyTimes="0;1" dur="0.8695652173913042s" begin="-0.6763285024154588s" repeatCount="indefinite"></animate>
  </rect>
</g><g transform="rotate(80 50 50)">
  <rect x="47.5" y="25" rx="0" ry="0" width="5" height="8" fill="#263133">
    <animate attributeName="opacity" values="1;0" keyTimes="0;1" dur="0.8695652173913042s" begin="-0.5797101449275361s" repeatCount="indefinite"></animate>
  </rect>
</g><g transform="rotate(120 50 50)">
  <rect x="47.5" y="25" rx="0" ry="0" width="5" height="8" fill="#263133">
    <animate attributeName="opacity" values="1;0" keyTimes="0;1" dur="0.8695652173913042s" begin="-0.48309178743961345s" repeatCount="indefinite"></animate>
  </rect>
</g><g transform="rotate(160 50 50)">
  <rect x="47.5" y="25" rx="0" ry="0" width="5" height="8" fill="#263133">
    <animate attributeName="opacity" values="1;0" keyTimes="0;1" dur="0.8695652173913042s" begin="-0.38647342995169076s" repeatCount="indefinite"></animate>
  </rect>
</g><g transform="rotate(200 50 50)">
  <rect x="47.5" y="25" rx="0" ry="0" width="5" height="8" fill="#263133">
    <animate attributeName="opacity" values="1;0" keyTimes="0;1" dur="0.8695652173913042s" begin="-0.28985507246376807s" repeatCount="indefinite"></animate>
  </rect>
</g><g transform="rotate(240 50 50)">
  <rect x="47.5" y="25" rx="0" ry="0" width="5" height="8" fill="#263133">
    <animate attributeName="opacity" values="1;0" keyTimes="0;1" dur="0.8695652173913042s" begin="-0.19323671497584538s" repeatCount="indefinite"></animate>
  </rect>
</g><g transform="rotate(280 50 50)">
  <rect x="47.5" y="25" rx="0" ry="0" width="5" height="8" fill="#263133">
    <animate attributeName="opacity" values="1;0" keyTimes="0;1" dur="0.8695652173913042s" begin="-0.09661835748792269s" repeatCount="indefinite"></animate>
  </rect>
</g><g transform="rotate(320 50 50)">
  <rect x="47.5" y="25" rx="0" ry="0" width="5" height="8" fill="#263133">
    <animate attributeName="opacity" values="1;0" keyTimes="0;1" dur="0.8695652173913042s" begin="0s" repeatCount="indefinite"></animate>
  </rect>
</g>
<!-- [ldio] generated by https://loading.io/ --></svg>